<svg width="1440" height="161" viewBox="0 0 1440 161" fill="none" xmlns="http://www.w3.org/2000/svg">
<rect x="-0.968445" y="63.8965" width="1475.14" height="80" transform="rotate(-2.35575 -0.968445 63.8965)" fill="#3A414A"/>
<path d="M-14.8771 93.6533C-14.6897 98.2094 -0.535068 97.7873 -0.178285 106.46C0.0140816 111.136 -3.92272 114.701 -10.3173 114.964C-14.7536 115.146 -19.0574 113.682 -21.5639 111.143L-17.9299 107.03C-16.3788 108.728 -14.0382 110.153 -10.9608 110.026C-8.36301 109.919 -6.56896 108.765 -6.63801 107.086C-6.87034 102.412 -21.025 102.834 -21.3817 94.1611C-21.5741 89.4851 -17.5908 86.0784 -11.5958 85.8318C-7.47932 85.6625 -3.77827 87.0715 -1.23017 89.649L-4.86254 93.8018C-6.41528 92.0641 -8.75419 90.6791 -11.1921 90.7794C-13.3903 90.8698 -14.9412 92.0946 -14.8771 93.6533ZM24.0129 85.0075L25.1589 112.864L19.6435 113.091L19.1716 101.62L7.86121 102.086L8.33309 113.556L2.77779 113.785L1.63181 85.9282L7.18711 85.6997L7.65734 97.13L18.9678 96.6647L18.4975 85.2344L24.0129 85.0075ZM27.3543 98.8418C27.0025 90.289 32.3895 84.0223 40.5426 83.6869C48.7356 83.3499 54.8639 89.263 55.2141 97.7758C55.5643 106.289 50.0142 112.482 41.8211 112.819C33.628 113.156 27.7078 107.435 27.3543 98.8418ZM32.873 98.6948C33.1081 104.41 36.6784 107.506 41.6342 107.302C46.7099 107.093 49.9289 103.598 49.7004 98.0426C49.4653 92.3274 45.7636 88.9568 40.8078 89.1606C35.812 89.3661 32.6444 93.1395 32.873 98.6948ZM71.5558 83.0516C76.4716 82.8494 79.8021 85.9551 80.0158 91.1507C80.2214 96.1465 77.3855 99.2256 72.9493 99.4081L72.11 99.4427L80.695 110.579L74.0207 110.854L65.5221 99.8738L63.5238 99.956L63.9891 111.266L58.4338 111.495L57.2879 83.6386L71.5558 83.0516ZM71.1602 88.0321L63.047 88.3658L63.32 95.0002L71.4331 94.6665C73.3515 94.5875 74.5761 93.216 74.4939 91.2177C74.4101 89.1795 73.0785 87.9532 71.1602 88.0321ZM102.61 81.7741L102.813 86.7299L94.3805 87.0768L95.3226 109.977L89.8073 110.204L88.8652 87.3037L80.4323 87.6506L80.2285 82.6948L102.61 81.7741ZM105.503 109.559L104.357 81.7022L109.913 81.4736L110.855 104.374L125.522 103.771L125.726 108.727L105.503 109.559ZM132.993 108.428L127.438 108.656L126.292 80.7998L131.847 80.5713L132.993 108.428ZM158.641 79.469L159.787 107.325L153.432 107.587L141.565 89.6595L142.321 108.044L136.766 108.273L135.62 80.4161L142.015 80.153L153.882 98.0804L153.125 79.6959L158.641 79.469ZM167.989 79.0845L168.49 91.2742L177.58 78.6899L183.735 78.4367L173.317 92.797L184.881 106.293L178.447 106.558L168.671 95.6704L169.135 106.941L163.579 107.169L162.433 79.313L167.989 79.0845ZM201.839 95.0265L195.045 95.306L194.766 88.5118L201.56 88.2323L201.839 95.0265ZM226.44 76.0393C234.633 75.7023 240.761 81.6154 241.112 90.1282C241.299 94.6843 239.815 98.5085 237.122 101.181L239.579 104.443L235.232 107.785L232.442 104.176C231.024 104.755 229.437 105.101 227.719 105.171C219.525 105.508 213.605 99.7869 213.252 91.1942C212.9 82.6414 218.287 76.3747 226.44 76.0393ZM226.705 81.513C221.709 81.7185 218.54 85.452 218.77 91.0472C219.006 96.7624 222.576 99.8583 227.532 99.6544C228.011 99.6347 228.448 99.5366 228.802 99.402L226.684 96.5666L231.03 93.2252L233.738 96.7568C235.034 95.1822 235.706 93.0328 235.598 90.395C235.363 84.6798 231.661 81.3092 226.705 81.513ZM257.531 75.4008C262.447 75.1986 265.778 78.3043 265.991 83.4999C266.197 88.4957 263.361 91.5748 258.925 91.7573L258.086 91.7919L266.671 102.928L259.996 103.203L251.498 92.223L249.499 92.3052L249.965 103.616L244.409 103.844L243.263 75.9878L257.531 75.4008ZM257.136 80.3813L249.023 80.715L249.295 87.3494L257.409 87.0156C259.327 86.9367 260.552 85.5652 260.469 83.5669C260.386 81.5286 259.054 80.3023 257.136 80.3813ZM290.287 77.5762L286.655 81.729C285.066 80.073 282.828 79.2042 280.59 79.2963C276.234 79.4755 273.066 83.2489 273.295 88.8042C273.53 94.5193 277.1 97.6152 281.416 97.4376C283.694 97.3439 285.776 96.3775 287.189 94.718L291.187 98.4769C288.815 101.137 285.36 102.8 281.603 102.955C274.05 103.265 268.129 97.5439 267.776 88.9511C267.424 80.3984 272.811 74.1317 280.285 73.8242C284.082 73.668 287.703 75.0804 290.287 77.5762ZM290.608 88.0119C290.256 79.4591 295.643 73.1924 303.796 72.857C311.99 72.5199 318.118 78.433 318.468 86.9458C318.818 95.4586 313.268 101.652 305.075 101.989C296.882 102.326 290.962 96.6046 290.608 88.0119ZM296.127 87.8649C296.362 93.5801 299.932 96.6759 304.888 96.472C309.964 96.2632 313.183 92.768 312.954 87.2127C312.719 81.4975 309.017 78.1268 304.062 78.3307C299.066 78.5362 295.898 82.3096 296.127 87.8649ZM330.32 100.31L321.688 100.665L320.542 72.8086L329.174 72.4535C337.407 72.1148 343.15 77.4032 343.5 85.916C343.842 94.229 338.553 99.9712 330.32 100.31ZM328.739 77.4356L326.301 77.5359L327.039 95.4807L329.477 95.3804C334.833 95.1601 338.203 91.4584 337.976 85.9431C337.758 80.6276 334.094 77.2153 328.739 77.4356ZM346.745 99.6342L345.599 71.7778L365.822 70.9459L366.025 75.9017L351.358 76.5051L351.624 82.9796L364.134 82.465L364.338 87.4208L351.828 87.9354L352.096 94.4499L366.764 93.8465L366.968 98.8023L346.745 99.6342ZM394.957 87.0819L388.163 87.3614L387.884 80.5672L394.678 80.2876L394.957 87.0819ZM428.881 71.8746L425.249 76.0275C423.659 74.3714 421.422 73.5026 419.184 73.5947C414.827 73.7739 411.66 77.5473 411.888 83.1026C412.123 88.8178 415.694 91.9136 420.01 91.7361C422.288 91.6423 424.37 90.6759 425.783 89.0165L429.781 92.7753C427.408 95.4351 423.954 97.0985 420.197 97.253C412.643 97.5638 406.723 91.8423 406.37 83.2496C406.018 74.6968 411.405 68.4301 418.878 68.1226C422.675 67.9664 426.296 69.3788 428.881 71.8746ZM431.195 85.6712L430.479 68.2859L436.035 68.0574L436.771 85.9622C436.911 89.3594 439.241 91.5054 442.598 91.3673C445.995 91.2275 448.142 88.8973 448.002 85.5002L447.265 67.5954L452.781 67.3685L453.496 84.7538C453.769 91.3882 449.557 96.0452 442.802 96.3231C436.128 96.5977 431.468 92.3056 431.195 85.6712ZM462.493 74.0149C462.68 78.571 476.835 78.1489 477.191 86.8215C477.384 91.4976 473.447 95.0624 467.052 95.3255C462.616 95.508 458.312 94.0436 455.806 91.5045L459.44 87.3917C460.991 89.0893 463.331 90.5143 466.409 90.3877C469.007 90.2809 470.801 89.1262 470.732 87.4476C470.499 82.7732 456.345 83.1953 455.988 74.5227C455.796 69.8466 459.779 66.44 465.774 66.1934C469.89 66.024 473.591 67.4331 476.139 70.0106L472.507 74.1634C470.954 72.4257 468.615 71.0407 466.178 71.141C463.979 71.2314 462.428 72.4562 462.493 74.0149ZM499.227 65.4577L499.431 70.4135L490.998 70.7604L491.94 93.6611L486.425 93.888L485.483 70.9873L477.05 71.3342L476.846 66.3784L499.227 65.4577ZM500.079 79.3945C499.728 70.8417 505.115 64.575 513.268 64.2396C521.461 63.9025 527.589 69.8156 527.939 78.3284C528.289 86.8412 522.739 93.0346 514.546 93.3716C506.353 93.7087 500.433 87.9872 500.079 79.3945ZM505.598 79.2475C505.833 84.9627 509.404 88.0585 514.359 87.8546C519.435 87.6458 522.654 84.1506 522.426 78.5953C522.19 72.8801 518.489 69.5094 513.533 69.7133C508.537 69.9188 505.37 73.6922 505.598 79.2475ZM557.35 63.0666L558.496 90.923L552.981 91.1499L552.308 74.8038L547.745 91.3653L541.91 91.6054L536.043 75.5129L536.714 91.8191L531.159 92.0477L530.013 64.1912L537.687 63.8755L544.457 82.493L549.676 63.3823L557.35 63.0666ZM572.335 90.3537L571.189 62.4973L576.744 62.2687L577.687 85.1694L592.354 84.566L592.558 89.5218L572.335 90.3537ZM599.825 89.2228L594.27 89.4514L593.124 61.5949L598.679 61.3664L599.825 89.2228ZM625.472 60.2641L626.618 88.1206L620.264 88.382L608.397 70.4546L609.153 88.8391L603.598 89.0676L602.452 61.2112L608.846 60.9481L620.713 78.8755L619.957 60.491L625.472 60.2641ZM634.82 59.8796L635.322 72.0693L644.412 59.485L650.567 59.2318L640.148 73.5921L651.713 87.0882L645.278 87.3529L635.503 76.4655L635.966 87.736L630.411 87.9645L629.265 60.1081L634.82 59.8796ZM668.671 75.8216L661.877 76.1011L661.597 69.3069L668.392 69.0274L668.671 75.8216ZM707.926 56.8721L709.072 84.7285L703.556 84.9554L702.884 68.6093L698.321 85.1708L692.486 85.4109L686.619 69.3184L687.29 85.6246L681.735 85.8531L680.589 57.9967L688.262 57.681L695.033 76.2984L700.252 57.1878L707.926 56.8721ZM719.767 56.385L726.121 56.1236L737.339 83.5657L731.464 83.8074L729.02 77.9428L718.669 78.3687L716.716 84.4141L710.841 84.6557L719.767 56.385ZM720.224 73.3405L727.098 73.0577L723.236 63.8487L720.224 73.3405ZM760.905 54.6926L762.051 82.549L755.696 82.8105L743.829 64.8831L744.585 83.2675L739.03 83.4961L737.884 55.6396L744.279 55.3766L756.146 73.304L755.389 54.9195L760.905 54.6926ZM772.691 54.2078L779.045 53.9463L790.263 81.3884L784.388 81.6301L781.944 75.7656L771.593 76.1914L769.64 82.2368L763.765 82.4785L772.691 54.2078ZM773.148 71.1633L780.022 70.8805L776.16 61.6714L773.148 71.1633ZM811.565 56.1315L807.933 60.2843C806.343 58.6282 804.106 57.7595 801.868 57.8515C797.511 58.0307 794.344 61.8041 794.572 67.3594C794.808 73.0746 798.378 76.1705 802.694 75.9929C804.213 75.9304 805.635 75.4716 806.843 74.6612L806.682 70.7445L803.884 70.8596L803.659 65.3843L811.972 65.0423L812.465 77.0321C810.092 79.6919 806.638 81.3553 802.881 81.5099C795.327 81.8206 789.407 76.0991 789.054 67.5064C788.702 58.9536 794.089 52.6869 801.563 52.3794C805.359 52.2233 808.981 53.6356 811.565 56.1315ZM815.762 80.3394L814.616 52.483L834.839 51.651L835.043 56.6068L820.375 57.2103L820.642 63.6848L833.151 63.1702L833.355 68.126L820.845 68.6406L821.113 75.1551L835.781 74.5517L835.985 79.5075L815.762 80.3394ZM863.975 67.7871L857.18 68.0666L856.901 61.2723L863.695 60.9928L863.975 67.7871ZM882.177 56.7496C882.364 61.3057 896.519 60.8836 896.875 69.5562C897.068 74.2323 893.131 77.7971 886.736 78.0602C882.3 78.2427 877.996 76.7783 875.49 74.2392L879.124 70.1264C880.675 71.824 883.016 73.249 886.093 73.1224C888.691 73.0156 890.485 71.8609 890.416 70.1823C890.183 65.5079 876.029 65.93 875.672 57.2574C875.48 52.5813 879.463 49.1747 885.458 48.9281C889.574 48.7587 893.275 50.1678 895.824 52.7452L892.191 56.8981C890.638 55.1604 888.3 53.7754 885.862 53.8757C883.663 53.9661 882.112 55.1909 882.177 56.7496ZM921.067 48.1037L922.213 75.9602L916.697 76.1871L916.225 64.7168L904.915 65.1821L905.387 76.6524L899.832 76.8809L898.686 49.0245L904.241 48.7959L904.711 60.2263L916.021 59.761L915.551 48.3306L921.067 48.1037ZM924.408 61.9381C924.056 53.3853 929.443 47.1186 937.596 46.7832C945.789 46.4461 951.918 52.3592 952.268 60.872C952.618 69.3848 947.068 75.5782 938.875 75.9153C930.682 76.2523 924.762 70.5308 924.408 61.9381ZM929.927 61.7911C930.162 67.5063 933.732 70.6021 938.688 70.3983C943.764 70.1895 946.983 66.6942 946.754 61.1389C946.519 55.4237 942.817 52.053 937.862 52.2569C932.866 52.4624 929.698 56.2358 929.927 61.7911ZM968.61 46.1479C973.525 45.9456 976.856 49.0514 977.07 54.247C977.275 59.2428 974.439 62.3219 970.003 62.5044L969.164 62.539L977.749 73.6755L971.074 73.9501L962.576 62.9701L960.578 63.0523L961.043 74.3627L955.488 74.5913L954.342 46.7348L968.61 46.1479ZM968.214 51.1283L960.101 51.4621L960.374 58.0965L968.487 57.7627C970.405 57.6838 971.63 56.3123 971.548 54.314C971.464 52.2757 970.132 51.0494 968.214 51.1283ZM999.663 44.8704L999.867 49.8262L991.434 50.1731L992.376 73.0737L986.861 73.3006L985.919 50.4L977.486 50.7469L977.282 45.7911L999.663 44.8704ZM1002.56 72.6549L1001.41 44.7985L1006.97 44.5699L1007.91 67.4705L1022.58 66.8671L1022.78 71.823L1002.56 72.6549ZM1030.05 71.524L1024.49 71.7525L1023.35 43.8961L1028.9 43.6676L1030.05 71.524ZM1055.69 42.5653L1056.84 70.4218L1050.49 70.6832L1038.62 52.7558L1039.38 71.1403L1033.82 71.3688L1032.67 43.5124L1039.07 43.2493L1050.94 61.1767L1050.18 42.7922L1055.69 42.5653ZM1065.04 42.1807L1065.54 54.3704L1074.63 41.7861L1080.79 41.5329L1070.37 55.8933L1081.93 69.3894L1075.5 69.6541L1065.72 58.7667L1066.19 70.0372L1060.63 70.2657L1059.49 42.4093L1065.04 42.1807ZM1098.89 58.1228L1092.1 58.4023L1091.82 51.6081L1098.61 51.3286L1098.89 58.1228ZM1123.49 39.1356C1131.69 38.7985 1137.82 44.7116 1138.17 53.2244C1138.35 57.7806 1136.87 61.6048 1134.18 64.2777L1136.63 67.5395L1132.29 70.881L1129.5 67.2727C1128.08 67.8514 1126.49 68.197 1124.77 68.2677C1116.58 68.6047 1110.66 62.8832 1110.31 54.2905C1109.95 45.7377 1115.34 39.471 1123.49 39.1356ZM1123.76 44.6093C1118.76 44.8148 1115.59 48.5483 1115.82 54.1435C1116.06 59.8587 1119.63 62.9545 1124.59 62.7507C1125.06 62.7309 1125.5 62.6329 1125.86 62.4982L1123.74 59.6629L1128.08 56.3214L1130.79 59.8531C1132.09 58.2785 1132.76 56.1291 1132.65 53.4913C1132.42 47.7761 1128.71 44.4054 1123.76 44.6093ZM1154.59 38.4971C1159.5 38.2948 1162.83 41.4006 1163.05 46.5962C1163.25 51.5919 1160.41 54.6711 1155.98 54.8536L1155.14 54.8881L1163.72 66.0247L1157.05 66.2992L1148.55 55.3193L1146.55 55.4015L1147.02 66.7119L1141.46 66.9405L1140.32 39.084L1154.59 38.4971ZM1154.19 43.4775L1146.08 43.8113L1146.35 50.4457L1154.46 50.1119C1156.38 50.033 1157.61 48.6615 1157.52 46.6632C1157.44 44.6249 1156.11 43.3986 1154.19 43.4775ZM1187.34 40.6725L1183.71 44.8253C1182.12 43.1692 1179.88 42.3005 1177.64 42.3926C1173.29 42.5718 1170.12 46.3452 1170.35 51.9005C1170.58 57.6156 1174.15 60.7115 1178.47 60.5339C1180.75 60.4402 1182.83 59.4738 1184.24 57.8143L1188.24 61.5732C1185.87 64.2329 1182.41 65.8963 1178.66 66.0509C1171.1 66.3616 1165.18 60.6402 1164.83 52.0474C1164.48 43.4947 1169.86 37.2279 1177.34 36.9205C1181.14 36.7643 1184.76 38.1766 1187.34 40.6725ZM1187.66 51.1081C1187.31 42.5554 1192.7 36.2886 1200.85 35.9532C1209.04 35.6162 1215.17 41.5293 1215.52 50.0421C1215.87 58.5549 1210.32 64.7482 1202.13 65.0853C1193.94 65.4224 1188.02 59.7009 1187.66 51.1081ZM1193.18 50.9612C1193.42 56.6763 1196.99 59.7722 1201.94 59.5683C1207.02 59.3595 1210.24 55.8642 1210.01 50.3089C1209.77 44.5938 1206.07 41.2231 1201.12 41.427C1196.12 41.6325 1192.95 45.4059 1193.18 50.9612ZM1227.37 63.4062L1218.74 63.7613L1217.6 35.9049L1226.23 35.5498C1234.46 35.2111 1240.2 40.4995 1240.55 49.0123C1240.9 57.3253 1235.61 63.0675 1227.37 63.4062ZM1225.79 40.5319L1223.35 40.6322L1224.09 58.577L1226.53 58.4767C1231.89 58.2564 1235.26 54.5547 1235.03 49.0394C1234.81 43.7239 1231.15 40.3116 1225.79 40.5319ZM1243.8 62.7305L1242.65 34.8741L1262.88 34.0421L1263.08 38.9979L1248.41 39.6013L1248.68 46.0759L1261.19 45.5613L1261.39 50.5171L1248.88 51.0317L1249.15 57.5462L1263.82 56.9428L1264.02 61.8986L1243.8 62.7305ZM1282.02 50.5892L1275.23 50.8687L1274.95 44.0745L1281.74 43.795L1282.02 50.5892ZM1315.94 35.382L1312.31 39.5348C1310.72 37.8787 1308.48 37.0099 1306.25 37.102C1301.89 37.2812 1298.72 41.0546 1298.95 46.6099C1299.19 52.3251 1302.76 55.4209 1307.07 55.2434C1309.35 55.1497 1311.43 54.1833 1312.85 52.5238L1316.84 56.2826C1314.47 58.9424 1311.02 60.6058 1307.26 60.7604C1299.71 61.0711 1293.79 55.3496 1293.43 46.7569C1293.08 38.2041 1298.47 31.9374 1305.94 31.6299C1309.74 31.4737 1313.36 32.8861 1315.94 35.382ZM1318.26 49.1785L1317.54 31.7932L1323.1 31.5647L1323.83 49.4695C1323.97 52.8667 1326.3 55.0127 1329.66 54.8746C1333.06 54.7348 1335.2 52.4047 1335.06 49.0075L1334.33 31.1027L1339.84 30.8758L1340.56 48.2611C1340.83 54.8955 1336.62 59.5525 1329.86 59.8304C1323.19 60.105 1318.53 55.8129 1318.26 49.1785ZM1349.55 37.5222C1349.74 42.0783 1363.9 41.6562 1364.25 50.3288C1364.45 55.0049 1360.51 58.5697 1354.11 58.8328C1349.68 59.0153 1345.37 57.551 1342.87 55.0118L1346.5 50.899C1348.05 52.5967 1350.39 54.0217 1353.47 53.8951C1356.07 53.7882 1357.86 52.6335 1357.79 50.9549C1357.56 46.2805 1343.41 46.7027 1343.05 38.03C1342.86 33.354 1346.84 29.9473 1352.84 29.7007C1356.95 29.5314 1360.65 30.9404 1363.2 33.5179L1359.57 37.6707C1358.02 35.933 1355.68 34.548 1353.24 34.6483C1351.04 34.7387 1349.49 35.9635 1349.55 37.5222ZM1386.29 28.965L1386.49 33.9208L1378.06 34.2678L1379 57.1684L1373.49 57.3953L1372.55 34.4946L1364.11 34.8416L1363.91 29.8858L1386.29 28.965ZM1387.14 42.9018C1386.79 34.349 1392.18 28.0823 1400.33 27.7469C1408.52 27.4098 1414.65 33.3229 1415 41.8357C1415.35 50.3485 1409.8 56.5419 1401.61 56.8789C1393.42 57.216 1387.5 51.4945 1387.14 42.9018ZM1392.66 42.7548C1392.9 48.47 1396.47 51.5658 1401.42 51.362C1406.5 51.1532 1409.72 47.6579 1409.49 42.1026C1409.25 36.3874 1405.55 33.0167 1400.6 33.2206C1395.6 33.4261 1392.43 37.1995 1392.66 42.7548ZM1444.41 26.5739L1445.56 54.4304L1440.04 54.6573L1439.37 38.3111L1434.81 54.8726L1428.97 55.1127L1423.11 39.0202L1423.78 55.3264L1418.22 55.555L1417.08 27.6985L1424.75 27.3829L1431.52 46.0003L1436.74 26.8896L1444.41 26.5739ZM1459.4 53.861L1458.25 26.0046L1463.81 25.7761L1464.75 48.6767L1479.42 48.0733L1479.62 53.0291L1459.4 53.861ZM1486.89 52.7301L1481.33 52.9587L1480.19 25.1022L1485.74 24.8737L1486.89 52.7301ZM1512.53 23.7715L1513.68 51.6279L1507.33 51.8893L1495.46 33.9619L1496.22 52.3464L1490.66 52.5749L1489.51 24.7185L1495.91 24.4554L1507.78 42.3828L1507.02 23.9983L1512.53 23.7715ZM1521.88 23.3869L1522.38 35.5766L1531.47 22.9923L1537.63 22.7391L1527.21 37.0995L1538.78 50.5955L1532.34 50.8602L1522.56 39.9729L1523.03 51.2433L1517.47 51.4719L1516.33 23.6154L1521.88 23.3869Z" fill="#71797F"/>
<rect y="81" width="1440" height="80" fill="#1463FF"/>
<path d="M-15.12 110.16C-15.12 114.72 -0.96 114.88 -0.96 123.56C-0.96 128.24 -5.04 131.64 -11.44 131.64C-15.88 131.64 -20.12 130 -22.52 127.36L-18.72 123.4C-17.24 125.16 -14.96 126.68 -11.88 126.68C-9.28 126.68 -7.44 125.6 -7.44 123.92C-7.48 119.24 -21.64 119.08 -21.64 110.4C-21.64 105.72 -17.52 102.48 -11.52 102.48C-7.4 102.48 -3.76 104.04 -1.32 106.72L-5.12 110.72C-6.6 108.92 -8.88 107.44 -11.32 107.44C-13.52 107.44 -15.12 108.6 -15.12 110.16ZM24.0925 103.12V131H18.5725V119.52H7.2525V131H1.6925V103.12H7.2525V114.56H18.5725V103.12H24.0925ZM26.8625 117.08C26.8625 108.52 32.5025 102.48 40.6625 102.48C48.8625 102.48 54.7425 108.64 54.7425 117.16C54.7425 125.68 48.9425 131.64 40.7425 131.64C32.5425 131.64 26.8625 125.68 26.8625 117.08ZM32.3825 117.16C32.3825 122.88 35.8225 126.12 40.7825 126.12C45.8625 126.12 49.2225 122.76 49.2225 117.2C49.2225 111.48 45.6625 107.96 40.7025 107.96C35.7025 107.96 32.3825 111.6 32.3825 117.16ZM71.6756 103.12C76.5956 103.12 79.7956 106.36 79.7956 111.56C79.7956 116.56 76.8356 119.52 72.3956 119.52H71.5556L79.6756 131H72.9956L64.9556 119.68H62.9556V131H57.3956V103.12H71.6756ZM71.0756 108.08H62.9556V114.72H71.0756C72.9956 114.72 74.2756 113.4 74.2756 111.4C74.2756 109.36 72.9956 108.08 71.0756 108.08ZM102.756 103.12V108.08H94.3156V131H88.7956V108.08H80.3556V103.12H102.756ZM104.505 131V103.12H110.065V126.04H124.745V131H104.505ZM132.018 131H126.458V103.12H132.018V131ZM158.834 103.12V131H152.474L141.354 112.6V131H135.794V103.12H142.194L153.314 121.52V103.12H158.834ZM168.19 103.12V115.32L177.79 103.12H183.95L172.95 117.04L183.95 131H177.51L168.19 119.72V131H162.63V103.12H168.19ZM201.357 120.44H194.557V113.64H201.357V120.44ZM226.717 102.48C234.917 102.48 240.797 108.64 240.797 117.16C240.797 121.72 239.157 125.48 236.357 128.04L238.677 131.4L234.197 134.56L231.557 130.84C230.117 131.36 228.517 131.64 226.797 131.64C218.597 131.64 212.917 125.68 212.917 117.08C212.917 108.52 218.557 102.48 226.717 102.48ZM226.757 107.96C221.757 107.96 218.437 111.56 218.437 117.16C218.437 122.88 221.877 126.12 226.837 126.12C227.317 126.12 227.757 126.04 228.117 125.92L226.117 123L230.597 119.84L233.157 123.48C234.517 121.96 235.277 119.84 235.277 117.2C235.277 111.48 231.717 107.96 226.757 107.96ZM257.808 103.12C262.728 103.12 265.928 106.36 265.928 111.56C265.928 116.56 262.968 119.52 258.528 119.52H257.688L265.808 131H259.128L251.088 119.68H249.088V131H243.528V103.12H257.808ZM257.208 108.08H249.088V114.72H257.208C259.128 114.72 260.408 113.4 260.408 111.4C260.408 109.36 259.128 108.08 257.208 108.08ZM290.448 106.64L286.648 110.64C285.128 108.92 282.928 107.96 280.688 107.96C276.328 107.96 273.008 111.6 273.008 117.16C273.008 122.88 276.448 126.12 280.768 126.12C283.048 126.12 285.168 125.24 286.648 123.64L290.488 127.56C288.008 130.12 284.488 131.64 280.728 131.64C273.168 131.64 267.488 125.68 267.488 117.08C267.488 108.52 273.128 102.48 280.608 102.48C284.408 102.48 287.968 104.04 290.448 106.64ZM290.339 117.08C290.339 108.52 295.979 102.48 304.139 102.48C312.339 102.48 318.219 108.64 318.219 117.16C318.219 125.68 312.419 131.64 304.219 131.64C296.019 131.64 290.339 125.68 290.339 117.08ZM295.859 117.16C295.859 122.88 299.299 126.12 304.259 126.12C309.339 126.12 312.699 122.76 312.699 117.2C312.699 111.48 309.139 107.96 304.179 107.96C299.179 107.96 295.859 111.6 295.859 117.16ZM329.512 131H320.872V103.12H329.512C337.752 103.12 343.272 108.64 343.272 117.16C343.272 125.48 337.752 131 329.512 131ZM328.872 108.08H326.432V126.04H328.872C334.232 126.04 337.752 122.48 337.752 116.96C337.752 111.64 334.232 108.08 328.872 108.08ZM345.95 131V103.12H366.19V108.08H351.51V114.56H364.03V119.52H351.51V126.04H366.19V131H345.95ZM394.638 120.44H387.838V113.64H394.638V120.44ZM429.158 106.64L425.358 110.64C423.838 108.92 421.638 107.96 419.398 107.96C415.038 107.96 411.718 111.6 411.718 117.16C411.718 122.88 415.158 126.12 419.478 126.12C421.758 126.12 423.878 125.24 425.358 123.64L429.198 127.56C426.718 130.12 423.198 131.64 419.438 131.64C411.878 131.64 406.198 125.68 406.198 117.08C406.198 108.52 411.838 102.48 419.318 102.48C423.118 102.48 426.678 104.04 429.158 106.64ZM430.903 120.52V103.12H436.463V121.04C436.463 124.44 438.703 126.68 442.063 126.68C445.463 126.68 447.703 124.44 447.703 121.04V103.12H453.223V120.52C453.223 127.16 448.823 131.64 442.063 131.64C435.383 131.64 430.903 127.16 430.903 120.52ZM462.653 110.16C462.653 114.72 476.813 114.88 476.813 123.56C476.813 128.24 472.733 131.64 466.333 131.64C461.893 131.64 457.653 130 455.253 127.36L459.053 123.4C460.533 125.16 462.813 126.68 465.893 126.68C468.493 126.68 470.333 125.6 470.333 123.92C470.293 119.24 456.133 119.08 456.133 110.4C456.133 105.72 460.253 102.48 466.253 102.48C470.373 102.48 474.013 104.04 476.453 106.72L472.653 110.72C471.173 108.92 468.893 107.44 466.453 107.44C464.253 107.44 462.653 108.6 462.653 110.16ZM499.709 103.12V108.08H491.269V131H485.749V108.08H477.309V103.12H499.709ZM499.988 117.08C499.988 108.52 505.628 102.48 513.788 102.48C521.988 102.48 527.868 108.64 527.868 117.16C527.868 125.68 522.068 131.64 513.868 131.64C505.668 131.64 499.988 125.68 499.988 117.08ZM505.508 117.16C505.508 122.88 508.948 126.12 513.908 126.12C518.988 126.12 522.348 122.76 522.348 117.2C522.348 111.48 518.788 107.96 513.828 107.96C508.828 107.96 505.508 111.6 505.508 117.16ZM557.881 103.12V131H552.361V114.64L547.121 131H541.281L536.081 114.68V131H530.521V103.12H538.201L544.201 122L550.201 103.12H557.881ZM571.732 131V103.12H577.292V126.04H591.972V131H571.732ZM599.245 131H593.685V103.12H599.245V131ZM626.061 103.12V131H619.701L608.581 112.6V131H603.021V103.12H609.421L620.541 121.52V103.12H626.061ZM635.417 103.12V115.32L645.017 103.12H651.177L640.177 117.04L651.177 131H644.737L635.417 119.72V131H629.857V103.12H635.417ZM668.583 120.44H661.783V113.64H668.583V120.44ZM708.584 103.12V131H703.064V114.64L697.824 131H691.984L686.784 114.68V131H681.224V103.12H688.904L694.904 122L700.904 103.12H708.584ZM720.435 103.12H726.795L736.875 131H730.995L728.795 125.04H718.435L716.235 131H710.355L720.435 103.12ZM720.195 120.08H727.075L723.595 110.72L720.195 120.08ZM761.608 103.12V131H755.248L744.128 112.6V131H738.568V103.12H744.968L756.088 121.52V103.12H761.608ZM773.403 103.12H779.763L789.843 131H783.963L781.763 125.04H771.403L769.203 131H763.323L773.403 103.12ZM773.163 120.08H780.043L776.563 110.72L773.163 120.08ZM812.166 106.64L808.366 110.64C806.846 108.92 804.646 107.96 802.406 107.96C798.046 107.96 794.726 111.6 794.726 117.16C794.726 122.88 798.166 126.12 802.486 126.12C804.006 126.12 805.446 125.72 806.686 124.96V121.04H803.886V115.56H812.206V127.56C809.726 130.12 806.206 131.64 802.446 131.64C794.886 131.64 789.206 125.68 789.206 117.08C789.206 108.52 794.846 102.48 802.326 102.48C806.126 102.48 809.686 104.04 812.166 106.64ZM815.364 131V103.12H835.604V108.08H820.924V114.56H833.444V119.52H820.924V126.04H835.604V131H815.364ZM864.052 120.44H857.252V113.64H864.052V120.44ZM882.693 110.16C882.693 114.72 896.852 114.88 896.852 123.56C896.852 128.24 892.773 131.64 886.373 131.64C881.933 131.64 877.693 130 875.293 127.36L879.093 123.4C880.573 125.16 882.853 126.68 885.933 126.68C888.533 126.68 890.373 125.6 890.373 123.92C890.333 119.24 876.173 119.08 876.173 110.4C876.173 105.72 880.293 102.48 886.293 102.48C890.413 102.48 894.053 104.04 896.493 106.72L892.693 110.72C891.213 108.92 888.933 107.44 886.493 107.44C884.293 107.44 882.693 108.6 882.693 110.16ZM921.905 103.12V131H916.385V119.52H905.065V131H899.505V103.12H905.065V114.56H916.385V103.12H921.905ZM924.675 117.08C924.675 108.52 930.315 102.48 938.475 102.48C946.675 102.48 952.555 108.64 952.555 117.16C952.555 125.68 946.755 131.64 938.555 131.64C930.355 131.64 924.675 125.68 924.675 117.08ZM930.195 117.16C930.195 122.88 933.635 126.12 938.595 126.12C943.675 126.12 947.035 122.76 947.035 117.2C947.035 111.48 943.475 107.96 938.515 107.96C933.515 107.96 930.195 111.6 930.195 117.16ZM969.488 103.12C974.408 103.12 977.608 106.36 977.608 111.56C977.608 116.56 974.648 119.52 970.208 119.52H969.368L977.488 131H970.808L962.768 119.68H960.768V131H955.208V103.12H969.488ZM968.888 108.08H960.768V114.72H968.888C970.808 114.72 972.088 113.4 972.088 111.4C972.088 109.36 970.808 108.08 968.888 108.08ZM1000.57 103.12V108.08H992.128V131H986.608V108.08H978.168V103.12H1000.57ZM1002.32 131V103.12H1007.88V126.04H1022.56V131H1002.32ZM1029.83 131H1024.27V103.12H1029.83V131ZM1056.65 103.12V131H1050.29L1039.17 112.6V131H1033.61V103.12H1040.01L1051.13 121.52V103.12H1056.65ZM1066 103.12V115.32L1075.6 103.12H1081.76L1070.76 117.04L1081.76 131H1075.32L1066 119.72V131H1060.44V103.12H1066ZM1099.17 120.44H1092.37V113.64H1099.17V120.44ZM1124.53 102.48C1132.73 102.48 1138.61 108.64 1138.61 117.16C1138.61 121.72 1136.97 125.48 1134.17 128.04L1136.49 131.4L1132.01 134.56L1129.37 130.84C1127.93 131.36 1126.33 131.64 1124.61 131.64C1116.41 131.64 1110.73 125.68 1110.73 117.08C1110.73 108.52 1116.37 102.48 1124.53 102.48ZM1124.57 107.96C1119.57 107.96 1116.25 111.56 1116.25 117.16C1116.25 122.88 1119.69 126.12 1124.65 126.12C1125.13 126.12 1125.57 126.04 1125.93 125.92L1123.93 123L1128.41 119.84L1130.97 123.48C1132.33 121.96 1133.09 119.84 1133.09 117.2C1133.09 111.48 1129.53 107.96 1124.57 107.96ZM1155.62 103.12C1160.54 103.12 1163.74 106.36 1163.74 111.56C1163.74 116.56 1160.78 119.52 1156.34 119.52H1155.5L1163.62 131H1156.94L1148.9 119.68H1146.9V131H1141.34V103.12H1155.62ZM1155.02 108.08H1146.9V114.72H1155.02C1156.94 114.72 1158.22 113.4 1158.22 111.4C1158.22 109.36 1156.94 108.08 1155.02 108.08ZM1188.26 106.64L1184.46 110.64C1182.94 108.92 1180.74 107.96 1178.5 107.96C1174.14 107.96 1170.82 111.6 1170.82 117.16C1170.82 122.88 1174.26 126.12 1178.58 126.12C1180.86 126.12 1182.98 125.24 1184.46 123.64L1188.3 127.56C1185.82 130.12 1182.3 131.64 1178.54 131.64C1170.98 131.64 1165.3 125.68 1165.3 117.08C1165.3 108.52 1170.94 102.48 1178.42 102.48C1182.22 102.48 1185.78 104.04 1188.26 106.64ZM1188.15 117.08C1188.15 108.52 1193.79 102.48 1201.95 102.48C1210.15 102.48 1216.03 108.64 1216.03 117.16C1216.03 125.68 1210.23 131.64 1202.03 131.64C1193.83 131.64 1188.15 125.68 1188.15 117.08ZM1193.67 117.16C1193.67 122.88 1197.11 126.12 1202.07 126.12C1207.15 126.12 1210.51 122.76 1210.51 117.2C1210.51 111.48 1206.95 107.96 1201.99 107.96C1196.99 107.96 1193.67 111.6 1193.67 117.16ZM1227.32 131H1218.68V103.12H1227.32C1235.56 103.12 1241.08 108.64 1241.08 117.16C1241.08 125.48 1235.56 131 1227.32 131ZM1226.68 108.08H1224.24V126.04H1226.68C1232.04 126.04 1235.56 122.48 1235.56 116.96C1235.56 111.64 1232.04 108.08 1226.68 108.08ZM1243.76 131V103.12H1264V108.08H1249.32V114.56H1261.84V119.52H1249.32V126.04H1264V131H1243.76ZM1282.45 120.44H1275.65V113.64H1282.45V120.44ZM1316.97 106.64L1313.17 110.64C1311.65 108.92 1309.45 107.96 1307.21 107.96C1302.85 107.96 1299.53 111.6 1299.53 117.16C1299.53 122.88 1302.97 126.12 1307.29 126.12C1309.57 126.12 1311.69 125.24 1313.17 123.64L1317.01 127.56C1314.53 130.12 1311.01 131.64 1307.25 131.64C1299.69 131.64 1294.01 125.68 1294.01 117.08C1294.01 108.52 1299.65 102.48 1307.13 102.48C1310.93 102.48 1314.49 104.04 1316.97 106.64ZM1318.72 120.52V103.12H1324.28V121.04C1324.28 124.44 1326.52 126.68 1329.88 126.68C1333.28 126.68 1335.52 124.44 1335.52 121.04V103.12H1341.04V120.52C1341.04 127.16 1336.64 131.64 1329.88 131.64C1323.2 131.64 1318.72 127.16 1318.72 120.52ZM1350.47 110.16C1350.47 114.72 1364.63 114.88 1364.63 123.56C1364.63 128.24 1360.55 131.64 1354.15 131.64C1349.71 131.64 1345.47 130 1343.07 127.36L1346.87 123.4C1348.35 125.16 1350.63 126.68 1353.71 126.68C1356.31 126.68 1358.15 125.6 1358.15 123.92C1358.11 119.24 1343.95 119.08 1343.95 110.4C1343.95 105.72 1348.07 102.48 1354.07 102.48C1358.19 102.48 1361.83 104.04 1364.27 106.72L1360.47 110.72C1358.99 108.92 1356.71 107.44 1354.27 107.44C1352.07 107.44 1350.47 108.6 1350.47 110.16ZM1387.52 103.12V108.08H1379.08V131H1373.56V108.08H1365.12V103.12H1387.52ZM1387.8 117.08C1387.8 108.52 1393.44 102.48 1401.6 102.48C1409.8 102.48 1415.68 108.64 1415.68 117.16C1415.68 125.68 1409.88 131.64 1401.68 131.64C1393.48 131.64 1387.8 125.68 1387.8 117.08ZM1393.32 117.16C1393.32 122.88 1396.76 126.12 1401.72 126.12C1406.8 126.12 1410.16 122.76 1410.16 117.2C1410.16 111.48 1406.6 107.96 1401.64 107.96C1396.64 107.96 1393.32 111.6 1393.32 117.16ZM1445.69 103.12V131H1440.17V114.64L1434.93 131H1429.09L1423.89 114.68V131H1418.33V103.12H1426.01L1432.01 122L1438.01 103.12H1445.69ZM1459.54 131V103.12H1465.1V126.04H1479.78V131H1459.54ZM1487.06 131H1481.5V103.12H1487.06V131ZM1513.87 103.12V131H1507.51L1496.39 112.6V131H1490.83V103.12H1497.23L1508.35 121.52V103.12H1513.87ZM1523.23 103.12V115.32L1532.83 103.12H1538.99L1527.99 117.04L1538.99 131H1532.55L1523.23 119.72V131H1517.67V103.12H1523.23Z" fill="white"/>
</svg>
