<svg width="141" height="174" viewBox="0 0 141 174" fill="none" xmlns="http://www.w3.org/2000/svg">
<g opacity="0.24" clip-path="url(#clip0_9_207)">
<path d="M50.0677 173.707C55.0466 174.324 60.0989 173.943 64.928 172.586C69.7571 171.228 74.2655 168.922 78.1885 165.802C87.2382 158.764 128.614 126.022 137.613 118.882L141 89.3779C126.697 100.738 80.0291 137.713 65.7131 149.035C63.9231 150.517 61.8564 151.629 59.6326 152.308C57.4087 152.987 55.072 153.22 52.7575 152.992C50.443 152.764 48.1968 152.081 46.1488 150.982C44.1008 149.882 42.2917 148.389 40.8262 146.587C39.3647 144.763 38.2835 142.666 37.6462 140.419C37.009 138.172 36.8286 135.82 37.1156 133.503C37.4026 131.185 38.1512 128.948 39.3175 126.923C40.4837 124.899 42.044 123.127 43.9067 121.712C53.0843 114.402 62.279 107.113 71.4906 99.8457L59.5265 82.6077C49.3008 90.5637 38.9473 98.3922 29.1561 106.833C17.5499 116.893 13.5619 130.076 17.2559 144.917C20.95 159.758 30.7923 168.964 45.5557 172.967C45.976 173.076 46.4029 173.157 46.8339 173.21L50.0677 173.707Z" fill="white"/>
<path d="M90.9323 0.305978C85.9544 -0.310355 80.9032 0.0702136 76.0746 1.4254C71.246 2.78059 66.7369 5.08316 62.8116 8.19827C53.7618 15.2363 12.3859 47.9784 3.3873 55.1312L0 84.6221C14.3032 73.2746 60.9709 36.2994 75.287 24.9646C77.0777 23.4841 79.1451 22.3727 81.3694 21.6946C83.5937 21.0164 85.9307 20.7851 88.2452 21.014C90.5597 21.2428 92.8058 21.9273 94.8533 23.0278C96.9009 24.1283 98.7092 25.623 100.174 27.4253C101.635 29.2496 102.717 31.3469 103.354 33.5939C103.991 35.841 104.171 38.1924 103.884 40.51C103.597 42.8276 102.849 45.0646 101.683 47.0894C100.516 49.1143 98.956 50.8861 97.0933 52.3007C87.9157 59.6107 78.7211 66.8995 69.5094 74.1671L81.4735 91.4051C91.6992 83.4491 102.053 75.6206 111.844 67.18C123.45 57.133 127.438 43.9494 123.757 29.0956C120.076 14.2418 110.208 5.06175 95.4444 1.04548C95.0353 0.943483 94.6391 0.87973 94.1662 0.803229L90.9323 0.305978Z" fill="white"/>
</g>
<defs>
<clipPath id="clip0_9_207">
<rect width="141" height="174" fill="white"/>
</clipPath>
</defs>
</svg>
