<svg width="513" height="145" viewBox="0 0 513 145" fill="none" xmlns="http://www.w3.org/2000/svg">
<g clip-path="url(#clip0_24_2)">
<path d="M87.08 12.48H50.58V111.89H36.48V12.48H0V0H87.08V12.48Z" fill="#111111"/>
<path d="M120.69 46.42H110.48C94.15 46.42 90.79 55.06 90.95 81V111.89H76.67V32.33H90.92V55.55C93.92 36.66 103.08 32.33 116.05 32.33H120.69V46.42Z" fill="#111111"/>
<path d="M194.48 111.89H180.24V91.4C176.72 105.65 166.47 114.29 152.55 114.29C135.26 114.29 126.93 101.17 126.93 81.64V32.33H141.02V75.88C141.02 93.32 146.78 102.29 159.27 102.29C171.27 102.29 179.6 94.29 180.27 82.12V32.33H194.48V111.89Z" fill="#111111"/>
<path d="M223.14 32.33V52.98C226.5 38.74 236.9 29.93 250.99 29.93C268.12 29.93 276.44 43.06 276.44 62.59V111.89H262.36V68.35C262.36 50.9 256.75 41.78 244.11 41.78C231.94 41.78 223.62 50.1 223.11 62.91V111.91H208.89V32.33H223.14Z" fill="#111111"/>
<path d="M354.4 144.23H340.15V87.72C336.95 104.21 326.87 114.45 312.78 114.45C294.85 114.45 283 97.97 283 71.87C283 46.1 294.37 29.93 313.1 29.93C326.87 29.93 336.95 38.58 340.15 55.87V32.33H354.4V144.23ZM340.15 75.39V68.99C339.99 53.62 332.15 43.06 318.86 43.06C305.57 43.06 297.25 53.78 297.25 71.87C297.25 90.12 305.73 101.33 318.86 101.33C331.48 101.33 339.99 91.08 340.15 75.39Z" fill="#111111"/>
<path d="M451.07 56.18L465.82 70.92C468.2 68.44 470.65 65.84 473.15 63.31C476.6 59.82 480.15 56.38 483.58 52.91C495.25 41.26 497.49 24.65 489.31 10.31C489.1 9.94003 488.91 9.56002 488.62 9.02002H510.23C510.78 9.02001 511.307 9.23779 511.697 9.6257C512.087 10.0136 512.307 10.5401 512.31 11.09C512.31 26.81 512.31 42.52 512.31 58.23C512.315 60.0469 511.959 61.8467 511.264 63.5254C510.569 65.204 509.548 66.7283 508.26 68.01C486.793 89.39 465.327 110.78 443.86 132.18C443.138 132.831 442.219 133.221 441.25 133.29C435.03 133.38 428.81 133.29 422.59 133.37C422.065 133.407 421.541 133.289 421.083 133.032C420.624 132.774 420.251 132.387 420.01 131.92C418.271 129.188 417.529 125.94 417.908 122.725C418.287 119.509 419.764 116.523 422.09 114.27C430.823 105.483 439.583 96.72 448.37 87.98C448.81 87.53 449.37 87.16 449.64 86.88C444.69 81.97 439.9 77.2 434.94 72.26C432.83 74.41 430.43 76.88 427.94 79.32C421.36 85.9134 414.77 92.49 408.17 99.05C398.98 108.18 395.57 119.18 398.13 131.95C398.188 132.351 398.225 132.755 398.24 133.16H387.85V131.01C387.85 114.6 387.85 98.18 387.9 81.76C387.896 80.6607 388.287 79.5964 389 78.76C409.087 58.5533 429.213 38.3834 449.38 18.25C450.661 16.9237 452.191 15.8626 453.882 15.1275C455.573 14.3923 457.392 13.9975 459.236 13.9654C461.08 13.9334 462.912 14.2648 464.627 14.9408C466.343 15.6167 467.909 16.624 469.235 17.905C470.561 19.1861 471.622 20.7158 472.358 22.4069C473.093 24.098 473.488 25.9174 473.52 27.7611C473.552 29.6048 473.22 31.4368 472.544 33.1524C471.868 34.868 470.861 36.4337 469.58 37.76C463.87 43.62 458.01 49.33 452.22 55.1C451.87 55.5 451.48 55.8 451.07 56.18Z" fill="#1463FF"/>
<path d="M395.63 8.91998H429.19L387.98 49.61V16.61C387.976 15.6024 388.171 14.6039 388.554 13.6717C388.936 12.7396 389.499 11.892 390.209 11.1777C390.92 10.4634 391.765 9.89623 392.695 9.50882C393.625 9.12141 394.622 8.92129 395.63 8.91998Z" fill="#1463FF"/>
<path d="M503.99 133.18H472.77L512.18 93.11V124.98C512.181 126.056 511.971 127.122 511.56 128.117C511.149 129.112 510.545 130.016 509.785 130.778C509.024 131.539 508.121 132.143 507.127 132.556C506.132 132.968 505.066 133.18 503.99 133.18Z" fill="#1463FF"/>
</g>
<defs>
<clipPath id="clip0_24_2">
<rect width="512.33" height="144.23" fill="white"/>
</clipPath>
</defs>
</svg>
