<svg width="37" height="37" viewBox="0 0 37 37" fill="none" xmlns="http://www.w3.org/2000/svg">
<g clip-path="url(#clip0_9_221)">
<path d="M18.7883 14.04L23.1755 18.4197C23.883 17.6853 24.6112 16.9122 25.3543 16.157C26.3797 15.1223 27.4349 14.0995 28.4515 13.0677C31.9232 9.60382 32.586 4.66216 30.1576 0.398423C30.0952 0.291383 30.0387 0.178395 29.9525 0.0148621H36.3758C36.5392 0.0156482 36.6957 0.08115 36.811 0.197047C36.9263 0.312944 36.9911 0.469799 36.9911 0.633309C36.9911 5.30539 36.9911 9.97747 36.9911 14.6495C36.9931 15.1899 36.8877 15.7252 36.681 16.2244C36.4744 16.7236 36.1706 17.1767 35.7873 17.5575C29.4066 23.9184 23.0249 30.2793 16.6423 36.6402C16.427 36.8322 16.1541 36.9472 15.8665 36.9673C14.0177 36.997 12.1689 36.9673 10.3201 36.9911C10.1643 37.0031 10.0084 36.9689 9.87203 36.8928C9.73561 36.8166 9.62467 36.7019 9.55317 36.5629C9.03632 35.7504 8.8153 34.7845 8.92738 33.828C9.03946 32.8715 9.4778 31.9829 10.1685 31.312C12.7663 28.7015 15.3711 26.0958 17.9828 23.4952C18.1136 23.3643 18.28 23.2514 18.3573 23.1711L13.9879 18.839C13.3608 19.4752 12.6444 20.2126 11.9073 20.9381C9.95148 22.8985 7.99368 24.854 6.0339 26.8045C3.28743 29.531 2.27387 32.7868 3.03479 36.5897C3.05087 36.709 3.06079 36.8291 3.06451 36.9494H-0.0208091V36.3102C-0.0208091 31.431 -0.0208091 26.5488 -0.0208091 21.6666C-0.0240236 21.3393 0.0922257 21.0222 0.306144 20.7746C6.27862 14.7665 12.261 8.76931 18.2533 2.78302C18.6341 2.38885 19.0887 2.07356 19.5913 1.85516C20.0939 1.63675 20.6346 1.51951 21.1824 1.51012C21.7303 1.50074 22.2747 1.59939 22.7844 1.80045C23.2942 2.00151 23.7594 2.30104 24.1534 2.68193C24.5475 3.06283 24.8627 3.51763 25.081 4.02037C25.2993 4.52311 25.4165 5.06396 25.4259 5.61201C25.4353 6.16007 25.3367 6.70461 25.1357 7.21454C24.9347 7.72447 24.6353 8.1898 24.2545 8.58397C22.5573 10.3234 20.8184 12.0241 19.0974 13.7397C19.041 13.8468 18.9072 13.9389 18.7883 14.04Z" fill="#1463FF"/>
<path d="M2.31249 2.01047e-06H12.2878L0.0386229 12.0984V2.28648C0.0366611 1.98667 0.0940573 1.68943 0.207487 1.41191C0.320918 1.13439 0.488149 0.88209 0.699531 0.669534C0.910914 0.456979 1.16227 0.288379 1.4391 0.173467C1.71594 0.0585545 2.01277 -0.000396844 2.31249 2.01047e-06Z" fill="#1463FF"/>
<path d="M34.521 36.9405H25.2383C29.0905 33.0276 32.9962 29.0573 36.9554 25.0294V34.5084C36.9546 35.1537 36.6978 35.7723 36.2414 36.2284C35.7849 36.6844 35.1662 36.9405 34.521 36.9405Z" fill="#1463FF"/>
</g>
<defs>
<clipPath id="clip0_9_221">
<rect width="37" height="37" fill="white"/>
</clipPath>
</defs>
</svg>
